<svg width="54" height="30" viewBox="0 0 54 30" fill="none" xmlns="http://www.w3.org/2000/svg">
<g clip-path="url(#clip0_158_347)">
<path d="M13.449 12.8381C12.5897 12.8381 11.8526 12.712 11.2375 12.4597C10.6224 12.2075 10.1566 11.8787 9.84 11.4733C9.53248 11.0589 9.36966 10.6084 9.35156 10.1219C9.35156 10.0498 9.3787 9.98678 9.43297 9.93272C9.49628 9.86967 9.56865 9.83813 9.65005 9.83813H11.3596C11.4681 9.83813 11.5541 9.86064 11.6174 9.90569C11.6898 9.94172 11.7621 10.0003 11.8345 10.0814C11.9521 10.3156 12.142 10.5093 12.4043 10.6625C12.6666 10.8156 13.0149 10.8922 13.449 10.8922C13.9646 10.8922 14.3581 10.8111 14.6295 10.6489C14.9008 10.4868 15.0365 10.266 15.0365 9.98678C15.0365 9.78859 14.9641 9.62642 14.8194 9.50029C14.6837 9.37415 14.4666 9.26156 14.1681 9.16245C13.8697 9.06334 13.4264 8.95075 12.8385 8.82461C11.7531 8.5994 10.939 8.27056 10.3963 7.83813C9.86261 7.3967 9.59578 6.77056 9.59578 5.95975C9.59578 5.41021 9.74956 4.91921 10.0571 4.48678C10.3646 4.05434 10.8033 3.71651 11.3732 3.47326C11.943 3.23002 12.6078 3.1084 13.3676 3.1084C14.1546 3.1084 14.8375 3.24353 15.4164 3.5138C15.9953 3.78407 16.434 4.12643 16.7325 4.54083C17.04 4.94624 17.2028 5.34713 17.2209 5.74353C17.2209 5.82461 17.1938 5.89218 17.1395 5.94624C17.0852 6.00029 17.0174 6.02732 16.936 6.02732H15.145C15.0365 6.02732 14.946 6.00929 14.8737 5.97326C14.8104 5.93724 14.7516 5.87867 14.6973 5.79759C14.643 5.59037 14.4938 5.4147 14.2496 5.27056C14.0144 5.12643 13.7204 5.05434 13.3676 5.05434C12.9606 5.05434 12.6485 5.12643 12.4315 5.27056C12.2144 5.4147 12.1058 5.62643 12.1058 5.9057C12.1058 6.09488 12.1646 6.25253 12.2822 6.37867C12.4089 6.5048 12.6078 6.62191 12.8792 6.73002C13.1596 6.82913 13.5576 6.93272 14.0732 7.04083C14.9144 7.19399 15.5837 7.38767 16.0812 7.62191C16.5878 7.84713 16.9586 8.14442 17.1938 8.5138C17.429 8.87415 17.5465 9.32913 17.5465 9.87867C17.5465 10.4823 17.3702 11.0093 17.0174 11.4597C16.6737 11.9012 16.1898 12.2435 15.5656 12.4868C14.9505 12.721 14.245 12.8381 13.449 12.8381ZM22.7849 12.8381C21.5095 12.8381 20.5055 12.5273 19.7728 11.9057C19.0402 11.2841 18.6512 10.3697 18.606 9.16245C18.597 8.90118 18.5924 8.5138 18.5924 8.00029C18.5924 7.47778 18.597 7.08588 18.606 6.82461C18.6512 5.63543 19.0447 4.72102 19.7864 4.08137C20.5372 3.43272 21.5366 3.1084 22.7849 3.1084C24.0331 3.1084 25.0326 3.43272 25.7834 4.08137C26.5341 4.72102 26.9276 5.63543 26.9638 6.82461C26.9819 7.34713 26.9909 7.73902 26.9909 8.00029C26.9909 8.25253 26.9819 8.63994 26.9638 9.16245C26.9185 10.3697 26.5296 11.2841 25.7969 11.9057C25.0643 12.5273 24.0603 12.8381 22.7849 12.8381ZM22.7849 10.8922C23.2824 10.8922 23.6758 10.7435 23.9653 10.4462C24.2638 10.1489 24.4221 9.69399 24.4402 9.08137C24.4583 8.55886 24.4673 8.18948 24.4673 7.97326C24.4673 7.73902 24.4583 7.36967 24.4402 6.86515C24.4221 6.25253 24.2638 5.79759 23.9653 5.50029C23.6668 5.20299 23.2733 5.05434 22.7849 5.05434C22.2964 5.05434 21.903 5.20299 21.6045 5.50029C21.315 5.79759 21.1567 6.25253 21.1296 6.86515C21.1206 7.1174 21.116 7.48678 21.116 7.97326C21.116 8.45075 21.1206 8.8201 21.1296 9.08137C21.1567 9.69399 21.315 10.1489 21.6045 10.4462C21.8939 10.7435 22.2874 10.8922 22.7849 10.8922ZM28.9028 12.703C28.8125 12.703 28.731 12.6715 28.6586 12.6084C28.5954 12.5363 28.5636 12.4552 28.5636 12.3652V3.58137C28.5636 3.48226 28.5954 3.40118 28.6586 3.33813C28.731 3.27507 28.8125 3.24353 28.9028 3.24353H35.144C35.2436 3.24353 35.325 3.27507 35.3882 3.33813C35.4515 3.40118 35.4832 3.48226 35.4832 3.58137V4.94624C35.4832 5.03632 35.4515 5.1174 35.3882 5.18948C35.325 5.25253 35.2436 5.28407 35.144 5.28407H30.9516V7.27056H34.8727C34.9723 7.27056 35.0537 7.30659 35.1169 7.37867C35.1801 7.44172 35.2119 7.5228 35.2119 7.62191V8.97326C35.2119 9.06334 35.1801 9.14442 35.1169 9.21651C35.0537 9.27956 34.9723 9.3111 34.8727 9.3111H30.9516V12.3652C30.9516 12.4643 30.9198 12.5453 30.8566 12.6084C30.7934 12.6715 30.712 12.703 30.6124 12.703H28.9028ZM39.3794 12.703C39.289 12.703 39.2076 12.6715 39.1351 12.6084C39.0719 12.5363 39.0402 12.4552 39.0402 12.3652V5.36515H36.6251C36.5347 5.36515 36.4533 5.33361 36.3809 5.27056C36.3176 5.19848 36.2859 5.1174 36.2859 5.02732V3.58137C36.2859 3.48226 36.3176 3.40118 36.3809 3.33813C36.4533 3.27507 36.5347 3.24353 36.6251 3.24353H43.9246C44.0242 3.24353 44.1056 3.27507 44.1688 3.33813C44.2323 3.40118 44.2638 3.48226 44.2638 3.58137V5.02732C44.2638 5.12643 44.2323 5.20751 44.1688 5.27056C44.1056 5.33361 44.0242 5.36515 43.9246 5.36515H41.5095V12.3652C41.5095 12.4552 41.478 12.5363 41.4145 12.6084C41.3513 12.6715 41.2699 12.703 41.1703 12.703H39.3794ZM48.2782 12.703C48.1879 12.703 48.1065 12.6715 48.034 12.6084C47.9708 12.5363 47.939 12.4552 47.939 12.3652V9.45975L44.7913 3.67597C44.7642 3.59488 44.7506 3.54534 44.7506 3.52732C44.7506 3.45524 44.7777 3.39218 44.832 3.33813C44.8955 3.27507 44.9677 3.24353 45.0491 3.24353H46.7451C46.9261 3.24353 47.0843 3.33813 47.2199 3.52732L49.1601 7.0138L51.1139 3.52732C51.2225 3.33813 51.3809 3.24353 51.5888 3.24353H53.2848C53.3662 3.24353 53.434 3.27507 53.4883 3.33813C53.5426 3.39218 53.5697 3.45524 53.5697 3.52732C53.5697 3.57237 53.5607 3.62191 53.5426 3.67597L50.3948 9.45975V12.3652C50.3948 12.4643 50.3587 12.5453 50.2863 12.6084C50.2231 12.6715 50.1416 12.703 50.0421 12.703H48.2782Z" fill="#000405"/>
<path d="M13.449 26.6213C12.5897 26.6213 11.8526 26.4952 11.2375 26.243C10.6224 25.9907 10.1566 25.6619 9.84 25.2565C9.53248 24.8421 9.36966 24.3916 9.35156 23.9051C9.35156 23.833 9.3787 23.77 9.43297 23.7159C9.49628 23.6529 9.56865 23.6213 9.65005 23.6213H11.3596C11.4681 23.6213 11.5541 23.6439 11.6174 23.6889C11.6898 23.7249 11.7621 23.7835 11.8345 23.8646C11.9521 24.0988 12.142 24.2925 12.4043 24.4457C12.6666 24.5988 13.0149 24.6754 13.449 24.6754C13.9646 24.6754 14.3581 24.5943 14.6295 24.4322C14.9008 24.27 15.0365 24.0493 15.0365 23.77C15.0365 23.5718 14.9641 23.4096 14.8194 23.2835C14.6837 23.1574 14.4666 23.0448 14.1681 22.9457C13.8697 22.8466 13.4264 22.734 12.8385 22.6078C11.7531 22.3826 10.939 22.0538 10.3963 21.6213C9.86261 21.1799 9.59578 20.5538 9.59578 19.743C9.59578 19.1934 9.74956 18.7024 10.0571 18.27C10.3646 17.8375 10.8033 17.4997 11.3732 17.2565C11.943 17.0132 12.6078 16.8916 13.3676 16.8916C14.1546 16.8916 14.8375 17.0267 15.4164 17.297C15.9953 17.5673 16.434 17.9096 16.7325 18.324C17.04 18.7294 17.2028 19.1303 17.2209 19.5267C17.2209 19.6078 17.1938 19.6754 17.1395 19.7294C17.0852 19.7835 17.0174 19.8105 16.936 19.8105H15.145C15.0365 19.8105 14.946 19.7925 14.8737 19.7565C14.8104 19.7204 14.7516 19.6619 14.6973 19.5808C14.643 19.3736 14.4938 19.1979 14.2496 19.0538C14.0144 18.9096 13.7204 18.8375 13.3676 18.8375C12.9606 18.8375 12.6485 18.9096 12.4315 19.0538C12.2144 19.1979 12.1058 19.4096 12.1058 19.6889C12.1058 19.8781 12.1646 20.0357 12.2822 20.1619C12.4089 20.288 12.6078 20.4051 12.8792 20.5132C13.1596 20.6123 13.5576 20.7159 14.0732 20.824C14.9144 20.9772 15.5837 21.1709 16.0812 21.4051C16.5878 21.6303 16.9586 21.9276 17.1938 22.297C17.429 22.6574 17.5465 23.1123 17.5465 23.6619C17.5465 24.2655 17.3702 24.7925 17.0174 25.243C16.6737 25.6844 16.1898 26.0267 15.5656 26.27C14.9505 26.5042 14.245 26.6213 13.449 26.6213ZM19.108 26.4862C19.0085 26.4862 18.9271 26.4547 18.8638 26.3916C18.8005 26.3286 18.7688 26.2475 18.7688 26.1484V17.3646C18.7688 17.2655 18.8005 17.1844 18.8638 17.1213C18.9362 17.0583 19.0176 17.0267 19.108 17.0267H20.8583C20.9578 17.0267 21.0392 17.0583 21.1025 17.1213C21.1748 17.1844 21.211 17.2655 21.211 17.3646V20.6213H24.5487V17.3646C24.5487 17.2655 24.5804 17.1844 24.6437 17.1213C24.707 17.0583 24.7884 17.0267 24.8879 17.0267H26.6382C26.7377 17.0267 26.8191 17.0583 26.8824 17.1213C26.9457 17.1844 26.9774 17.2655 26.9774 17.3646V26.1484C26.9774 26.2475 26.9457 26.3286 26.8824 26.3916C26.8191 26.4547 26.7377 26.4862 26.6382 26.4862H24.8879C24.7884 26.4862 24.707 26.4547 24.6437 26.3916C24.5804 26.3286 24.5487 26.2475 24.5487 26.1484V22.7835H21.211V26.1484C21.211 26.2475 21.1748 26.3286 21.1025 26.3916C21.0392 26.4547 20.9578 26.4862 20.8583 26.4862H19.108ZM32.6231 26.6213C31.3477 26.6213 30.3437 26.3105 29.6111 25.6889C28.8784 25.0673 28.4895 24.1529 28.4442 22.9457C28.4353 22.6844 28.4307 22.297 28.4307 21.7835C28.4307 21.261 28.4353 20.8691 28.4442 20.6078C28.4895 19.4186 28.883 18.5042 29.6246 17.8646C30.3755 17.2159 31.3749 16.8916 32.6231 16.8916C33.8714 16.8916 34.8708 17.2159 35.6216 17.8646C36.3725 18.5042 36.7659 19.4186 36.802 20.6078C36.8202 21.1303 36.8292 21.5222 36.8292 21.7835C36.8292 22.0357 36.8202 22.4232 36.802 22.9457C36.7567 24.1529 36.3678 25.0673 35.6352 25.6889C34.9025 26.3105 33.8985 26.6213 32.6231 26.6213ZM32.6231 24.6754C33.1205 24.6754 33.514 24.5267 33.8035 24.2295C34.102 23.9322 34.2602 23.4772 34.2784 22.8646C34.2966 22.3421 34.3055 21.9727 34.3055 21.7565C34.3055 21.5222 34.2966 21.1529 34.2784 20.6484C34.2602 20.0357 34.102 19.5808 33.8035 19.2835C33.505 18.9862 33.1116 18.8375 32.6231 18.8375C32.1347 18.8375 31.7412 18.9862 31.4427 19.2835C31.1532 19.5808 30.995 20.0357 30.9678 20.6484C30.9589 20.9006 30.9543 21.27 30.9543 21.7565C30.9543 22.234 30.9589 22.6033 30.9678 22.8646C30.995 23.4772 31.1532 23.9322 31.4427 24.2295C31.7323 24.5267 32.1257 24.6754 32.6231 24.6754ZM38.6055 26.4862C38.5151 26.4862 38.4337 26.4547 38.3612 26.3916C38.298 26.3195 38.2663 26.2385 38.2663 26.1484V17.3646C38.2663 17.2655 38.298 17.1844 38.3612 17.1213C38.4337 17.0583 38.5151 17.0267 38.6055 17.0267H42.4044C43.5623 17.0267 44.4714 17.2925 45.1316 17.824C45.801 18.3556 46.1356 19.1303 46.1356 20.1484C46.1356 21.1574 45.8054 21.9186 45.1452 22.4322C44.4849 22.9367 43.5713 23.1889 42.4044 23.1889H40.7899V26.1484C40.7899 26.2475 40.7538 26.3286 40.6813 26.3916C40.6181 26.4547 40.5367 26.4862 40.4371 26.4862H38.6055ZM42.3366 21.324C42.7347 21.324 43.0467 21.2249 43.2728 21.0267C43.4988 20.8195 43.612 20.5177 43.612 20.1213C43.612 19.752 43.5034 19.4592 43.2864 19.243C43.0782 19.0177 42.7618 18.9051 42.3366 18.9051H40.7492V21.324H42.3366Z" fill="#000405"/>
<path d="M0 29.1892V0.810811C0 0.363014 0.364473 0 0.81407 0H1.62814C2.07774 0 2.44221 0.363011 2.44221 0.810811V29.1892C2.44221 29.637 2.07774 30 1.62814 30H0.81407C0.364473 30 0 29.637 0 29.1892Z" fill="#000405"/>
</g>
<defs>
<clipPath id="clip0_158_347">
<rect width="54" height="30" fill="white"/>
</clipPath>
</defs>
</svg>
